name C:\Users\u0101727\Documents\MyRepositories\upper-imu-dc\Results\main_tracking\Case_10\FLX01_angularVelocities_bodyFrame.mot
datacolumns 4
datarows 105
range 5.01000000 6.05000000
endheader 
time	radius_imu_x	radius_imu_y	radius_imu_z	
          5.01000000	          1.32681476	         -0.10165802	          0.49540919	
          5.02000000	          1.29527942	          0.01543207	          0.50438975	
          5.03000000	          1.26037805	          0.16642968	          0.51439905	
          5.04000000	          1.22273752	          0.33707417	          0.52580026	
          5.05000000	          1.18447755	          0.49748199	          0.53947464	
          5.06000000	          1.14845174	          0.61380758	          0.55634758	
          5.07000000	          1.11717663	          0.66191471	          0.57692899	
          5.08000000	          1.09200393	          0.63616877	          0.60109540	
          5.09000000	          1.07290529	          0.54947616	          0.62818448	
          5.10000000	          1.05885345	          0.42589318	          0.65729702	
          5.11000000	          1.04844168	          0.29112836	          0.68761867	
          5.12000000	          1.04031341	          0.16651572	          0.71861831	
          5.13000000	          1.03322791	          0.06838149	          0.75011193	
          5.14000000	          1.02601406	          0.00933839	          0.78231773	
          5.15000000	          1.01782098	         -0.00366237	          0.81601221	
          5.16000000	          1.00869814	          0.02503959	          0.85269524	
          5.17000000	          1.00000896	          0.07622873	          0.89450299	
          5.18000000	          0.99412235	          0.12036460	          0.94370466	
          5.19000000	          0.99336511	          0.12987431	          1.00194772	
          5.20000000	          0.99879046	          0.09238778	          1.06965171	
          5.21000000	          1.00936723	          0.01806573	          1.14585933	
          5.22000000	          1.02185489	         -0.06155007	          1.22857683	
          5.23000000	          1.03134596	         -0.10225268	          1.31543659	
          5.24000000	          1.03234046	         -0.06096161	          1.40445269	
          5.25000000	          1.02009020	          0.08944335	          1.49462060	
          5.26000000	          0.99175964	          0.35000436	          1.58611236	
          5.27000000	          0.94694975	          0.69497761	          1.67994768	
          5.28000000	          0.88747293	          1.08038277	          1.77729012	
          5.29000000	          0.81664024	          1.45731249	          1.87871522	
          5.30000000	          0.73844087	          1.78461015	          1.98377789	
          5.31000000	          0.65691672	          2.03685963	          2.09102747	
          5.32000000	          0.57584813	          2.20616162	          2.19838323	
          5.33000000	          0.49865248	          2.29895645	          2.30362318	
          5.34000000	          0.42830352	          2.33058422	          2.40474846	
          5.35000000	          0.36714877	          2.32008444	          2.50011707	
          5.36000000	          0.31665049	          2.28661468	          2.58838517	
          5.37000000	          0.27718594	          2.24752220	          2.66837767	
          5.38000000	          0.24802623	          2.21740681	          2.73900268	
          5.39000000	          0.22751607	          2.20755659	          2.79926026	
          5.40000000	          0.21341721	          2.22527784	          2.84834320	
          5.41000000	          0.20336260	          2.27290999	          2.88580001	
          5.42000000	          0.19533422	          2.34697090	          2.91170078	
          5.43000000	          0.18803901	          2.43834097	          2.92672670	
          5.44000000	          0.18107543	          2.53402276	          2.93212035	
          5.45000000	          0.17486443	          2.62009754	          2.92948655	
          5.46000000	          0.17040736	          2.68482963	          2.92049331	
          5.47000000	          0.16898196	          2.72083444	          2.90656364	
          5.48000000	          0.17187812	          2.72573393	          2.88865324	
          5.49000000	          0.18022053	          2.70146030	          2.86717526	
          5.50000000	          0.19486572	          2.65288573	          2.84207598	
          5.51000000	          0.21633485	          2.58647192	          2.81301335	
          5.52000000	          0.24475451	          2.50929994	          2.77956531	
          5.53000000	          0.27980102	          2.42851315	          2.74140320	
          5.54000000	          0.32066234	          2.35104935	          2.69839320	
          5.55000000	          0.36604127	          2.28349080	          2.65061882	
          5.56000000	          0.41421891	          2.23185260	          2.59834386	
          5.57000000	          0.46318232	          2.20118359	          2.54195246	
          5.58000000	          0.51081114	          2.19495248	          2.48189351	
          5.59000000	          0.55510871	          2.21430365	          2.41863245	
          5.60000000	          0.59444035	          2.25740894	          2.35260713	
          5.61000000	          0.62772252	          2.31925238	          2.28419653	
          5.62000000	          0.65451424	          2.39206992	          2.21371578	
          5.63000000	          0.67499500	          2.46657354	          2.14143255	
          5.64000000	          0.68983982	          2.53438207	          2.06758453	
          5.65000000	          0.69988368	          2.59009828	          1.99241613	
          5.66000000	          0.70582955	          2.63301826	          1.91630955	
          5.67000000	          0.70795011	          2.66874769	          1.83988399	
          5.68000000	          0.70577852	          2.70996303	          1.76403370	
          5.69000000	          0.69784615	          2.77383441	          1.69013972	
          5.70000000	          0.68221737	          2.88710053	          1.61997128	
          5.71000000	          0.65353648	          3.03834980	          1.55778610	
          5.72000000	          0.61044141	          3.24358996	          1.52871724	
          5.73000000	          0.56864526	          3.58233942	          1.47149727	
          5.74000000	          0.52379483	          4.04385176	          1.42310773	
          5.75000000	          0.46597964	          4.54585445	          1.37877719	
          5.76000000	          0.39933420	          5.06525827	          1.33972019	
          5.77000000	          0.32657984	          5.55752696	          1.30929454	
          5.78000000	          0.25196335	          5.97534396	          1.28935073	
          5.79000000	          0.17957068	          6.27786970	          1.28020916	
          5.80000000	          0.11435982	          6.42332764	          1.28134822	
          5.81000000	          0.05525269	          6.45437783	          1.28626790	
          5.82000000	         -0.00301636	          6.44223563	          1.29106170	
          5.83000000	         -0.05521319	          6.33866523	          1.29565147	
          5.84000000	         -0.09528318	          6.11697824	          1.29783165	
          5.85000000	         -0.12381466	          5.81124536	          1.29512630	
          5.86000000	         -0.14128072	          5.45283191	          1.28559616	
          5.87000000	         -0.15005195	          5.08290603	          1.26788405	
          5.88000000	         -0.15377146	          4.74382045	          1.24133019	
          5.89000000	         -0.15644748	          4.46838610	          1.20612058	
          5.90000000	         -0.16121022	          4.27002659	          1.16333735	
          5.91000000	         -0.16947936	          4.13997260	          1.11476184	
          5.92000000	         -0.18097204	          4.05367905	          1.06241922	
          5.93000000	         -0.19443155	          3.98238274	          1.00806154	
          5.94000000	         -0.20847600	          3.90256393	          0.95285508	
          5.95000000	         -0.22211034	          3.79965145	          0.89733925	
          5.96000000	         -0.23481845	          3.66682109	          0.84157991	
          5.97000000	         -0.24637584	          3.50129951	          0.78541285	
          5.98000000	         -0.25657398	          3.30040078	          0.72870023	
          5.99000000	         -0.26500129	          3.05888607	          0.67156001	
          6.00000000	         -0.27097356	          2.76901609	          0.61450629	
          6.01000000	         -0.27364709	          2.42404246	          0.55843712	
          6.02000000	         -0.27223446	          2.02404802	          0.50445189	
          6.03000000	         -0.26615651	          1.58095255	          0.45355515	
          6.04000000	         -0.25503824	          1.12092895	          0.40632591	
          6.05000000	         -0.23855582	          0.68138221	          0.36251710	
